<svg width="90" height="95" viewBox="0 0 90 95" fill="none" xmlns="http://www.w3.org/2000/svg">
<path d="M45.18 94.3C39.1133 94.3 34.0867 92.22 30.1 88.06C26.1133 83.8133 22.6033 76.8367 19.57 67.13L1.5 9.67C1.15333 8.62999 0.98 7.54666 0.98 6.42C0.98 2.60666 3.66667 0.699995 9.04 0.699995C11.7267 0.699995 13.7633 1.22 15.15 2.26C16.6233 3.3 17.7067 4.98999 18.4 7.32999L36.34 65.83C37.9867 71.1167 39.5033 74.93 40.89 77.27C42.2767 79.61 43.7067 80.78 45.18 80.78C46.6533 80.78 48.0833 79.61 49.47 77.27C50.8567 74.93 52.3733 71.1167 54.02 65.83L71.96 7.32999C72.6533 4.98999 73.6933 3.3 75.08 2.26C76.5533 1.22 78.6333 0.699995 81.32 0.699995C86.6933 0.699995 89.38 2.60666 89.38 6.42C89.38 7.54666 89.2067 8.62999 88.86 9.67L70.79 67.13C67.7567 76.8367 64.2467 83.8133 60.26 88.06C56.2733 92.22 51.2467 94.3 45.18 94.3Z" fill="url(#paint0_linear_5_2)"/>
<defs>
<linearGradient id="paint0_linear_5_2" x1="20.5" y1="-6" x2="45" y2="93" gradientUnits="userSpaceOnUse">
<stop stop-color="#00DFAB"/>
<stop offset="1" stop-color="#03FF77"/>
</linearGradient>
</defs>
</svg>
